<svg fill="none" viewBox="0 0 627 894" class="h-24 text-white md:h-32 astro-RKVB4PDU" astro-icon="logomark"><path fill="currentColor" fill-rule="evenodd" d="M445.433 22.983c7.289 9.05 11.006 21.26 18.44 45.682l162.408 533.511a675.855 675.855 0 0 0-194.166-65.737l-105.744-357.34a13.763 13.763 0 0 0-26.408.041L195.5 536.259A675.821 675.821 0 0 0 .46 602.095L163.663 68.541c7.457-24.38 11.186-36.57 18.476-45.602A59.994 59.994 0 0 1 206.454 4.95C217.224.622 229.971.622 255.466.622h116.568c25.528 0 38.292 0 49.072 4.338a60.004 60.004 0 0 1 24.327 18.023Z" clip-rule="evenodd"></path><path fill="#FF5D01" fill-rule="evenodd" d="M464.867 627.566c-26.773 22.894-80.212 38.507-141.766 38.507-75.55 0-138.872-23.52-155.675-55.152-6.007 18.129-7.354 38.877-7.354 52.131 0 0-3.958 65.082 41.308 110.349 0-23.505 19.055-42.559 42.559-42.559 40.287 0 40.242 35.148 40.205 63.664l-.002 2.545c0 43.282 26.453 80.385 64.073 96.024-5.619-11.557-8.771-24.535-8.771-38.25 0-41.28 24.235-56.65 52.401-74.514 22.41-14.213 47.31-30.004 64.47-61.682 8.953-16.528 14.037-35.459 14.037-55.577 0-12.372-1.922-24.295-5.485-35.486Z" clip-rule="evenodd"></path></svg>